<svg xmlns="http://www.w3.org/2000/svg" xmlns:xlink="http://www.w3.org/1999/xlink" width="1200" height="630" viewBox="0 0 1200 630">
  <title>MD5Kit — MD5 Hash Calculator</title>
  <defs>
    <filter id="aurora" x="-60%" y="-60%" width="220%" height="220%">
      <feGaussianBlur stdDeviation="75"/>
    </filter>
    <linearGradient id="veil" x1="0" x2="1" y1="0" y2="0">
      <stop offset="0.38" stop-color="#12151c" stop-opacity="1"/>
      <stop offset="0.6" stop-color="#12151c" stop-opacity="0"/>
    </linearGradient>
  </defs>
  <!-- Background: ink, a single-hue aurora, and a veil that keeps the text column solid -->
  <g id="background">
    <rect width="1200" height="630" fill="#12151c"/>
    <ellipse cx="886.34" cy="500.46" rx="255.88" ry="229.66" fill="#b25200" opacity="0.3" filter="url(#aurora)"/>
    <ellipse cx="988.35" cy="263.24" rx="234.26" ry="244.24" fill="#b25200" opacity="0.14" filter="url(#aurora)"/>
    <rect width="1200" height="630" fill="url(#veil)"/>
  </g>
  <!-- City: one tower per hex digit of the app's digests of "md5kit.com", skyline arrangement -->
  <g id="city">
    <g data-cell="0,0" data-digit="b">
      <polygon points="856.05,110.46 890,128.74 890,307.59 856.05,289.31" fill="#c86f37"/>
      <polygon points="890,128.74 923.95,110.46 923.95,289.31 890,307.59" fill="#ae530e"/>
      <polygon points="890,92.18 923.95,110.46 890,128.74 856.05,110.46" fill="#f49e6d"/>
      <polyline points="856.05,110.46 890,128.74 923.95,110.46" fill="none" stroke="#ffeade" stroke-width="0.8" stroke-linejoin="round" stroke-opacity="0.75"/>
    </g>
    <g data-cell="0,1" data-digit="b">
      <polygon points="891.05,129.31 925,147.59 925,326.43 891.05,308.15" fill="#c86f37"/>
      <polygon points="925,147.59 958.95,129.31 958.95,308.15 925,326.43" fill="#ae530e"/>
      <polygon points="925,111.03 958.95,129.31 925,147.59 891.05,129.31" fill="#f49e6d"/>
      <polyline points="891.05,129.31 925,147.59 958.95,129.31" fill="none" stroke="#ffeade" stroke-width="0.8" stroke-linejoin="round" stroke-opacity="0.75"/>
    </g>
    <g data-cell="1,0" data-digit="9">
      <polygon points="821.05,159.12 855,177.4 855,326.43 821.05,308.15" fill="#bd5f1f"/>
      <polygon points="855,177.4 888.95,159.12 888.95,308.15 855,326.43" fill="#a44c06"/>
      <polygon points="855,140.83 888.95,159.12 855,177.4 821.05,159.12" fill="#ec8240"/>
      <polyline points="821.05,159.12 855,177.4 888.95,159.12" fill="none" stroke="#ffeade" stroke-width="0.8" stroke-linejoin="round" stroke-opacity="0.75"/>
    </g>
    <g data-cell="0,2" data-digit="d">
      <polygon points="926.05,118.35 960,136.63 960,345.28 926.05,327" fill="#d47e4c"/>
      <polygon points="960,136.63 993.95,118.35 993.95,327 960,345.28" fill="#b85a15"/>
      <polygon points="960,100.07 993.95,118.35 960,136.63 926.05,118.35" fill="#fab995"/>
      <polyline points="926.05,118.35 960,136.63 993.95,118.35" fill="none" stroke="#ffeade" stroke-width="0.8" stroke-linejoin="round" stroke-opacity="0.75"/>
    </g>
    <g data-cell="1,1" data-digit="d">
      <polygon points="856.05,118.35 890,136.63 890,345.28 856.05,327" fill="#d47e4c"/>
      <polygon points="890,136.63 923.95,118.35 923.95,327 890,345.28" fill="#b85a15"/>
      <polygon points="890,100.07 923.95,118.35 890,136.63 856.05,118.35" fill="#fab995"/>
      <polyline points="856.05,118.35 890,136.63 923.95,118.35" fill="none" stroke="#ffeade" stroke-width="0.8" stroke-linejoin="round" stroke-opacity="0.75"/>
    </g>
    <g data-cell="2,0" data-digit="c">
      <polygon points="786.05,133.25 820,151.53 820,345.28 786.05,327" fill="#ce7742"/>
      <polygon points="820,151.53 853.95,133.25 853.95,327 820,345.28" fill="#b35612"/>
      <polygon points="820,114.97 853.95,133.25 820,151.53 786.05,133.25" fill="#f7ac81"/>
      <polyline points="786.05,133.25 820,151.53 853.95,133.25" fill="none" stroke="#ffeade" stroke-width="0.8" stroke-linejoin="round" stroke-opacity="0.75"/>
    </g>
    <g data-cell="0,3" data-digit="9">
      <polygon points="961.05,196.81 995,215.09 995,364.13 961.05,345.85" fill="#bd5f1f"/>
      <polygon points="995,215.09 1028.95,196.81 1028.95,345.85 995,364.13" fill="#a44c06"/>
      <polygon points="995,178.53 1028.95,196.81 995,215.09 961.05,196.81" fill="#ec8240"/>
      <polyline points="961.05,196.81 995,215.09 1028.95,196.81" fill="none" stroke="#ffeade" stroke-width="0.8" stroke-linejoin="round" stroke-opacity="0.75"/>
    </g>
    <g data-cell="1,2" data-digit="e">
      <polygon points="891.05,122.29 925,140.57 925,364.13 891.05,345.85" fill="#d98655"/>
      <polygon points="925,140.57 958.95,122.29 958.95,345.85 925,364.13" fill="#be5d19"/>
      <polygon points="925,104.01 958.95,122.29 925,140.57 891.05,122.29" fill="#fdc7a9"/>
      <polyline points="891.05,122.29 925,140.57 958.95,122.29" fill="none" stroke="#ffeade" stroke-width="0.8" stroke-linejoin="round" stroke-opacity="0.75"/>
    </g>
    <g data-cell="2,1" data-digit="e">
      <polygon points="821.05,122.29 855,140.57 855,364.13 821.05,345.85" fill="#d98655"/>
      <polygon points="855,140.57 888.95,122.29 888.95,345.85 855,364.13" fill="#be5d19"/>
      <polygon points="855,104.01 888.95,122.29 855,140.57 821.05,122.29" fill="#fdc7a9"/>
      <polyline points="821.05,122.29 855,140.57 888.95,122.29" fill="none" stroke="#ffeade" stroke-width="0.8" stroke-linejoin="round" stroke-opacity="0.75"/>
    </g>
    <g data-cell="3,0" data-digit="b">
      <polygon points="751.05,167 785,185.28 785,364.13 751.05,345.85" fill="#c86f37"/>
      <polygon points="785,185.28 818.95,167 818.95,345.85 785,364.13" fill="#ae530e"/>
      <polygon points="785,148.72 818.95,167 785,185.28 751.05,167" fill="#f49e6d"/>
      <polyline points="751.05,167 785,185.28 818.95,167" fill="none" stroke="#ffeade" stroke-width="0.8" stroke-linejoin="round" stroke-opacity="0.75"/>
    </g>
    <g data-cell="0,4" data-digit="b">
      <polygon points="996.05,185.85 1030,204.13 1030,382.97 996.05,364.69" fill="#c86f37"/>
      <polygon points="1030,204.13 1063.95,185.85 1063.95,364.69 1030,382.97" fill="#ae530e"/>
      <polygon points="1030,167.57 1063.95,185.85 1030,204.13 996.05,185.85" fill="#f49e6d"/>
      <polyline points="996.05,185.85 1030,204.13 1063.95,185.85" fill="none" stroke="#ffeade" stroke-width="0.8" stroke-linejoin="round" stroke-opacity="0.75"/>
    </g>
    <g data-cell="1,3" data-digit="c">
      <polygon points="926.05,170.94 960,189.22 960,382.97 926.05,364.69" fill="#ce7742"/>
      <polygon points="960,189.22 993.95,170.94 993.95,364.69 960,382.97" fill="#b35612"/>
      <polygon points="960,152.66 993.95,170.94 960,189.22 926.05,170.94" fill="#f7ac81"/>
      <polyline points="926.05,170.94 960,189.22 993.95,170.94" fill="none" stroke="#ffeade" stroke-width="0.8" stroke-linejoin="round" stroke-opacity="0.75"/>
    </g>
    <g data-cell="2,2" data-digit="e">
      <polygon points="856.05,141.13 890,159.42 890,382.97 856.05,364.69" fill="#d98655"/>
      <polygon points="890,159.42 923.95,141.13 923.95,364.69 890,382.97" fill="#be5d19"/>
      <polygon points="890,122.85 923.95,141.13 890,159.42 856.05,141.13" fill="#fdc7a9"/>
      <polyline points="856.05,141.13 890,159.42 923.95,141.13" fill="none" stroke="#ffeade" stroke-width="0.8" stroke-linejoin="round" stroke-opacity="0.75"/>
    </g>
    <g data-cell="3,1" data-digit="e">
      <polygon points="786.05,141.13 820,159.42 820,382.97 786.05,364.69" fill="#d98655"/>
      <polygon points="820,159.42 853.95,141.13 853.95,364.69 820,382.97" fill="#be5d19"/>
      <polygon points="820,122.85 853.95,141.13 820,159.42 786.05,141.13" fill="#fdc7a9"/>
      <polyline points="786.05,141.13 820,159.42 853.95,141.13" fill="none" stroke="#ffeade" stroke-width="0.8" stroke-linejoin="round" stroke-opacity="0.75"/>
    </g>
    <g data-cell="4,0" data-digit="9">
      <polygon points="716.05,215.65 750,233.93 750,382.97 716.05,364.69" fill="#bd5f1f"/>
      <polygon points="750,233.93 783.95,215.65 783.95,364.69 750,382.97" fill="#a44c06"/>
      <polygon points="750,197.37 783.95,215.65 750,233.93 716.05,215.65" fill="#ec8240"/>
      <polyline points="716.05,215.65 750,233.93 783.95,215.65" fill="none" stroke="#ffeade" stroke-width="0.8" stroke-linejoin="round" stroke-opacity="0.75"/>
    </g>
    <g data-cell="0,5" data-digit="7">
      <polygon points="1031.05,264.31 1065,282.59 1065,401.82 1031.05,383.54" fill="#ae5000"/>
      <polygon points="1065,282.59 1098.95,264.31 1098.95,383.54 1065,401.82" fill="#964400"/>
      <polygon points="1065,246.03 1098.95,264.31 1065,282.59 1031.05,264.31" fill="#e16901"/>
      <polyline points="1031.05,264.31 1065,282.59 1098.95,264.31" fill="none" stroke="#ffeade" stroke-width="0.8" stroke-linejoin="round" stroke-opacity="0.75"/>
    </g>
    <g data-cell="1,4" data-digit="b">
      <polygon points="961.05,204.69 995,222.97 995,401.82 961.05,383.54" fill="#c86f37"/>
      <polygon points="995,222.97 1028.95,204.69 1028.95,383.54 995,401.82" fill="#ae530e"/>
      <polygon points="995,186.41 1028.95,204.69 995,222.97 961.05,204.69" fill="#f49e6d"/>
      <polyline points="961.05,204.69 995,222.97 1028.95,204.69" fill="none" stroke="#ffeade" stroke-width="0.8" stroke-linejoin="round" stroke-opacity="0.75"/>
    </g>
    <g data-cell="2,3" data-digit="e">
      <polygon points="891.05,159.98 925,178.26 925,401.82 891.05,383.54" fill="#d98655"/>
      <polygon points="925,178.26 958.95,159.98 958.95,383.54 925,401.82" fill="#be5d19"/>
      <polygon points="925,141.7 958.95,159.98 925,178.26 891.05,159.98" fill="#fdc7a9"/>
      <polyline points="891.05,159.98 925,178.26 958.95,159.98" fill="none" stroke="#ffeade" stroke-width="0.8" stroke-linejoin="round" stroke-opacity="0.75"/>
    </g>
    <g data-cell="3,2" data-digit="e">
      <polygon points="821.05,159.98 855,178.26 855,401.82 821.05,383.54" fill="#d98655"/>
      <polygon points="855,178.26 888.95,159.98 888.95,383.54 855,401.82" fill="#be5d19"/>
      <polygon points="855,141.7 888.95,159.98 855,178.26 821.05,159.98" fill="#fdc7a9"/>
      <polyline points="821.05,159.98 855,178.26 888.95,159.98" fill="none" stroke="#ffeade" stroke-width="0.8" stroke-linejoin="round" stroke-opacity="0.75"/>
    </g>
    <g data-cell="4,1" data-digit="a">
      <polygon points="751.05,219.6 785,237.88 785,401.82 751.05,383.54" fill="#c2672c"/>
      <polygon points="785,237.88 818.95,219.6 818.95,383.54 785,401.82" fill="#a9500a"/>
      <polygon points="785,201.32 818.95,219.6 785,237.88 751.05,219.6" fill="#f09157"/>
      <polyline points="751.05,219.6 785,237.88 818.95,219.6" fill="none" stroke="#ffeade" stroke-width="0.8" stroke-linejoin="round" stroke-opacity="0.75"/>
    </g>
    <g data-cell="5,0" data-digit="8">
      <polygon points="681.05,249.4 715,267.68 715,401.82 681.05,383.54" fill="#b7570d"/>
      <polygon points="715,267.68 748.95,249.4 748.95,383.54 715,401.82" fill="#9f4902"/>
      <polygon points="715,231.12 748.95,249.4 715,267.68 681.05,249.4" fill="#e87421"/>
      <polyline points="681.05,249.4 715,267.68 748.95,249.4" fill="none" stroke="#ffeade" stroke-width="0.8" stroke-linejoin="round" stroke-opacity="0.75"/>
    </g>
    <g data-cell="0,6" data-digit="4">
      <polygon points="1066.05,327.87 1100,346.15 1100,420.67 1066.05,402.38" fill="#8d3f00"/>
      <polygon points="1100,346.15 1133.95,327.87 1133.95,402.38 1100,420.67" fill="#713200"/>
      <polygon points="1100,309.58 1133.95,327.87 1100,346.15 1066.05,327.87" fill="#c35a00"/>
      <polyline points="1066.05,327.87 1100,346.15 1133.95,327.87" fill="none" stroke="#ffeade" stroke-width="0.8" stroke-linejoin="round" stroke-opacity="0.75"/>
    </g>
    <g data-cell="1,5" data-digit="7">
      <polygon points="996.05,283.15 1030,301.43 1030,420.67 996.05,402.38" fill="#ae5000"/>
      <polygon points="1030,301.43 1063.95,283.15 1063.95,402.38 1030,420.67" fill="#964400"/>
      <polygon points="1030,264.87 1063.95,283.15 1030,301.43 996.05,283.15" fill="#e16901"/>
      <polyline points="996.05,283.15 1030,301.43 1063.95,283.15" fill="none" stroke="#ffeade" stroke-width="0.8" stroke-linejoin="round" stroke-opacity="0.75"/>
    </g>
    <g data-cell="2,4" data-digit="d">
      <polygon points="926.05,193.73 960,212.01 960,420.67 926.05,402.38" fill="#d47e4c"/>
      <polygon points="960,212.01 993.95,193.73 993.95,402.38 960,420.67" fill="#b85a15"/>
      <polygon points="960,175.45 993.95,193.73 960,212.01 926.05,193.73" fill="#fab995"/>
      <polyline points="926.05,193.73 960,212.01 993.95,193.73" fill="none" stroke="#ffeade" stroke-width="0.8" stroke-linejoin="round" stroke-opacity="0.75"/>
    </g>
    <g data-cell="3,3" data-digit="c">
      <polygon points="856.05,208.63 890,226.92 890,420.67 856.05,402.38" fill="#ce7742"/>
      <polygon points="890,226.92 923.95,208.63 923.95,402.38 890,420.67" fill="#b35612"/>
      <polygon points="890,190.35 923.95,208.63 890,226.92 856.05,208.63" fill="#f7ac81"/>
      <polyline points="856.05,208.63 890,226.92 923.95,208.63" fill="none" stroke="#ffeade" stroke-width="0.8" stroke-linejoin="round" stroke-opacity="0.75"/>
    </g>
    <g data-cell="4,2" data-digit="c">
      <polygon points="786.05,208.63 820,226.92 820,420.67 786.05,402.38" fill="#ce7742"/>
      <polygon points="820,226.92 853.95,208.63 853.95,402.38 820,420.67" fill="#b35612"/>
      <polygon points="820,190.35 853.95,208.63 820,226.92 786.05,208.63" fill="#f7ac81"/>
      <polyline points="786.05,208.63 820,226.92 853.95,208.63" fill="none" stroke="#ffeade" stroke-width="0.8" stroke-linejoin="round" stroke-opacity="0.75"/>
    </g>
    <g data-cell="5,1" data-digit="7">
      <polygon points="716.05,283.15 750,301.43 750,420.67 716.05,402.38" fill="#ae5000"/>
      <polygon points="750,301.43 783.95,283.15 783.95,402.38 750,420.67" fill="#964400"/>
      <polygon points="750,264.87 783.95,283.15 750,301.43 716.05,283.15" fill="#e16901"/>
      <polyline points="716.05,283.15 750,301.43 783.95,283.15" fill="none" stroke="#ffeade" stroke-width="0.8" stroke-linejoin="round" stroke-opacity="0.75"/>
    </g>
    <g data-cell="6,0" data-digit="5">
      <polygon points="646.05,312.96 680,331.24 680,420.67 646.05,402.38" fill="#984500"/>
      <polygon points="680,331.24 713.95,312.96 713.95,402.38 680,420.67" fill="#7d3800"/>
      <polygon points="680,294.68 713.95,312.96 680,331.24 646.05,312.96" fill="#cd5f01"/>
      <polyline points="646.05,312.96 680,331.24 713.95,312.96" fill="none" stroke="#ffeade" stroke-width="0.8" stroke-linejoin="round" stroke-opacity="0.75"/>
    </g>
    <g data-cell="0,7" data-digit="2">
      <polygon points="1101.05,376.52 1135,394.8 1135,439.51 1101.05,421.23" fill="#783400"/>
      <polygon points="1135,394.8 1168.95,376.52 1168.95,421.23 1135,439.51" fill="#5a2600"/>
      <polygon points="1135,358.24 1168.95,376.52 1135,394.8 1101.05,376.52" fill="#af5100"/>
      <polyline points="1101.05,376.52 1135,394.8 1168.95,376.52" fill="none" stroke="#ffeade" stroke-width="0.8" stroke-linejoin="round" stroke-opacity="0.75"/>
    </g>
    <g data-cell="1,6" data-digit="6">
      <polygon points="1031.05,316.9 1065,335.18 1065,439.51 1031.05,421.23" fill="#a34a00"/>
      <polygon points="1065,335.18 1098.95,316.9 1098.95,421.23 1065,439.51" fill="#893e00"/>
      <polygon points="1065,298.62 1098.95,316.9 1065,335.18 1031.05,316.9" fill="#d76401"/>
      <polyline points="1031.05,316.9 1065,335.18 1098.95,316.9" fill="none" stroke="#ffeade" stroke-width="0.8" stroke-linejoin="round" stroke-opacity="0.75"/>
    </g>
    <g data-cell="2,5" data-digit="a">
      <polygon points="961.05,257.29 995,275.57 995,439.51 961.05,421.23" fill="#c2672c"/>
      <polygon points="995,275.57 1028.95,257.29 1028.95,421.23 995,439.51" fill="#a9500a"/>
      <polygon points="995,239.01 1028.95,257.29 995,275.57 961.05,257.29" fill="#f09157"/>
      <polyline points="961.05,257.29 995,275.57 1028.95,257.29" fill="none" stroke="#ffeade" stroke-width="0.8" stroke-linejoin="round" stroke-opacity="0.75"/>
    </g>
    <g data-cell="3,4" data-digit="b">
      <polygon points="891.05,242.38 925,260.67 925,439.51 891.05,421.23" fill="#c86f37"/>
      <polygon points="925,260.67 958.95,242.38 958.95,421.23 925,439.51" fill="#ae530e"/>
      <polygon points="925,224.1 958.95,242.38 925,260.67 891.05,242.38" fill="#f49e6d"/>
      <polyline points="891.05,242.38 925,260.67 958.95,242.38" fill="none" stroke="#ffeade" stroke-width="0.8" stroke-linejoin="round" stroke-opacity="0.75"/>
    </g>
    <g data-cell="4,3" data-digit="b">
      <polygon points="821.05,242.38 855,260.67 855,439.51 821.05,421.23" fill="#c86f37"/>
      <polygon points="855,260.67 888.95,242.38 888.95,421.23 855,439.51" fill="#ae530e"/>
      <polygon points="855,224.1 888.95,242.38 855,260.67 821.05,242.38" fill="#f49e6d"/>
      <polyline points="821.05,242.38 855,260.67 888.95,242.38" fill="none" stroke="#ffeade" stroke-width="0.8" stroke-linejoin="round" stroke-opacity="0.75"/>
    </g>
    <g data-cell="5,2" data-digit="a">
      <polygon points="751.05,257.29 785,275.57 785,439.51 751.05,421.23" fill="#c2672c"/>
      <polygon points="785,275.57 818.95,257.29 818.95,421.23 785,439.51" fill="#a9500a"/>
      <polygon points="785,239.01 818.95,257.29 785,275.57 751.05,257.29" fill="#f09157"/>
      <polyline points="751.05,257.29 785,275.57 818.95,257.29" fill="none" stroke="#ffeade" stroke-width="0.8" stroke-linejoin="round" stroke-opacity="0.75"/>
    </g>
    <g data-cell="6,1" data-digit="6">
      <polygon points="681.05,316.9 715,335.18 715,439.51 681.05,421.23" fill="#a34a00"/>
      <polygon points="715,335.18 748.95,316.9 748.95,421.23 715,439.51" fill="#893e00"/>
      <polygon points="715,298.62 748.95,316.9 715,335.18 681.05,316.9" fill="#d76401"/>
      <polyline points="681.05,316.9 715,335.18 748.95,316.9" fill="none" stroke="#ffeade" stroke-width="0.8" stroke-linejoin="round" stroke-opacity="0.75"/>
    </g>
    <g data-cell="7,0" data-digit="3">
      <polygon points="611.05,361.62 645,379.9 645,439.51 611.05,421.23" fill="#823a00"/>
      <polygon points="645,379.9 678.95,361.62 678.95,421.23 645,439.51" fill="#662c00"/>
      <polygon points="645,343.33 678.95,361.62 645,379.9 611.05,361.62" fill="#b95500"/>
      <polyline points="611.05,361.62 645,379.9 678.95,361.62" fill="none" stroke="#ffeade" stroke-width="0.8" stroke-linejoin="round" stroke-opacity="0.75"/>
    </g>
    <g data-cell="1,7" data-digit="3">
      <polygon points="1066.05,380.46 1100,398.74 1100,458.36 1066.05,440.08" fill="#823a00"/>
      <polygon points="1100,398.74 1133.95,380.46 1133.95,440.08 1100,458.36" fill="#662c00"/>
      <polygon points="1100,362.18 1133.95,380.46 1100,398.74 1066.05,380.46" fill="#b95500"/>
      <polyline points="1066.05,380.46 1100,398.74 1133.95,380.46" fill="none" stroke="#ffeade" stroke-width="0.8" stroke-linejoin="round" stroke-opacity="0.75"/>
    </g>
    <g data-cell="2,6" data-digit="4">
      <polygon points="996.05,365.56 1030,383.84 1030,458.36 996.05,440.08" fill="#8d3f00"/>
      <polygon points="1030,383.84 1063.95,365.56 1063.95,440.08 1030,458.36" fill="#713200"/>
      <polygon points="1030,347.28 1063.95,365.56 1030,383.84 996.05,365.56" fill="#c35a00"/>
      <polyline points="996.05,365.56 1030,383.84 1063.95,365.56" fill="none" stroke="#ffeade" stroke-width="0.8" stroke-linejoin="round" stroke-opacity="0.75"/>
    </g>
    <g data-cell="3,5" data-digit="8">
      <polygon points="926.05,305.94 960,324.22 960,458.36 926.05,440.08" fill="#b7570d"/>
      <polygon points="960,324.22 993.95,305.94 993.95,440.08 960,458.36" fill="#9f4902"/>
      <polygon points="960,287.66 993.95,305.94 960,324.22 926.05,305.94" fill="#e87421"/>
      <polyline points="926.05,305.94 960,324.22 993.95,305.94" fill="none" stroke="#ffeade" stroke-width="0.8" stroke-linejoin="round" stroke-opacity="0.75"/>
    </g>
    <g data-cell="4,4" data-digit="b">
      <polygon points="856.05,261.23 890,279.51 890,458.36 856.05,440.08" fill="#c86f37"/>
      <polygon points="890,279.51 923.95,261.23 923.95,440.08 890,458.36" fill="#ae530e"/>
      <polygon points="890,242.95 923.95,261.23 890,279.51 856.05,261.23" fill="#f49e6d"/>
      <polyline points="856.05,261.23 890,279.51 923.95,261.23" fill="none" stroke="#ffeade" stroke-width="0.8" stroke-linejoin="round" stroke-opacity="0.75"/>
    </g>
    <g data-cell="5,3" data-digit="8">
      <polygon points="786.05,305.94 820,324.22 820,458.36 786.05,440.08" fill="#b7570d"/>
      <polygon points="820,324.22 853.95,305.94 853.95,440.08 820,458.36" fill="#9f4902"/>
      <polygon points="820,287.66 853.95,305.94 820,324.22 786.05,305.94" fill="#e87421"/>
      <polyline points="786.05,305.94 820,324.22 853.95,305.94" fill="none" stroke="#ffeade" stroke-width="0.8" stroke-linejoin="round" stroke-opacity="0.75"/>
    </g>
    <g data-cell="6,2" data-digit="5">
      <polygon points="716.05,350.65 750,368.93 750,458.36 716.05,440.08" fill="#984500"/>
      <polygon points="750,368.93 783.95,350.65 783.95,440.08 750,458.36" fill="#7d3800"/>
      <polygon points="750,332.37 783.95,350.65 750,368.93 716.05,350.65" fill="#cd5f01"/>
      <polyline points="716.05,350.65 750,368.93 783.95,350.65" fill="none" stroke="#ffeade" stroke-width="0.8" stroke-linejoin="round" stroke-opacity="0.75"/>
    </g>
    <g data-cell="7,1" data-digit="1">
      <polygon points="646.05,410.27 680,428.55 680,458.36 646.05,440.08" fill="#6d2f00"/>
      <polygon points="680,428.55 713.95,410.27 713.95,440.08 680,458.36" fill="#4f2000"/>
      <polygon points="680,391.99 713.95,410.27 680,428.55 646.05,410.27" fill="#a64c00"/>
      <polyline points="646.05,410.27 680,428.55 713.95,410.27" fill="none" stroke="#ffeade" stroke-width="0.8" stroke-linejoin="round" stroke-opacity="0.75"/>
    </g>
    <g data-cell="2,7" data-digit="1">
      <polygon points="1031.05,429.12 1065,447.4 1065,477.2 1031.05,458.92" fill="#6d2f00"/>
      <polygon points="1065,447.4 1098.95,429.12 1098.95,458.92 1065,477.2" fill="#4f2000"/>
      <polygon points="1065,410.83 1098.95,429.12 1065,447.4 1031.05,429.12" fill="#a64c00"/>
      <polyline points="1031.05,429.12 1065,447.4 1098.95,429.12" fill="none" stroke="#ffeade" stroke-width="0.8" stroke-linejoin="round" stroke-opacity="0.75"/>
    </g>
    <g data-cell="3,6" data-digit="4">
      <polygon points="961.05,384.4 995,402.68 995,477.2 961.05,458.92" fill="#8d3f00"/>
      <polygon points="995,402.68 1028.95,384.4 1028.95,458.92 995,477.2" fill="#713200"/>
      <polygon points="995,366.12 1028.95,384.4 995,402.68 961.05,384.4" fill="#c35a00"/>
      <polyline points="961.05,384.4 995,402.68 1028.95,384.4" fill="none" stroke="#ffeade" stroke-width="0.8" stroke-linejoin="round" stroke-opacity="0.75"/>
    </g>
    <g data-cell="4,5" data-digit="9">
      <polygon points="891.05,309.88 925,328.17 925,477.2 891.05,458.92" fill="#bd5f1f"/>
      <polygon points="925,328.17 958.95,309.88 958.95,458.92 925,477.2" fill="#a44c06"/>
      <polygon points="925,291.6 958.95,309.88 925,328.17 891.05,309.88" fill="#ec8240"/>
      <polyline points="891.05,309.88 925,328.17 958.95,309.88" fill="none" stroke="#ffeade" stroke-width="0.8" stroke-linejoin="round" stroke-opacity="0.75"/>
    </g>
    <g data-cell="5,4" data-digit="9">
      <polygon points="821.05,309.88 855,328.17 855,477.2 821.05,458.92" fill="#bd5f1f"/>
      <polygon points="855,328.17 888.95,309.88 888.95,458.92 855,477.2" fill="#a44c06"/>
      <polygon points="855,291.6 888.95,309.88 855,328.17 821.05,309.88" fill="#ec8240"/>
      <polyline points="821.05,309.88 855,328.17 888.95,309.88" fill="none" stroke="#ffeade" stroke-width="0.8" stroke-linejoin="round" stroke-opacity="0.75"/>
    </g>
    <g data-cell="6,3" data-digit="5">
      <polygon points="751.05,369.5 785,387.78 785,477.2 751.05,458.92" fill="#984500"/>
      <polygon points="785,387.78 818.95,369.5 818.95,458.92 785,477.2" fill="#7d3800"/>
      <polygon points="785,351.22 818.95,369.5 785,387.78 751.05,369.5" fill="#cd5f01"/>
      <polyline points="751.05,369.5 785,387.78 818.95,369.5" fill="none" stroke="#ffeade" stroke-width="0.8" stroke-linejoin="round" stroke-opacity="0.75"/>
    </g>
    <g data-cell="7,2" data-digit="1">
      <polygon points="681.05,429.12 715,447.4 715,477.2 681.05,458.92" fill="#6d2f00"/>
      <polygon points="715,447.4 748.95,429.12 748.95,458.92 715,477.2" fill="#4f2000"/>
      <polygon points="715,410.83 748.95,429.12 715,447.4 681.05,429.12" fill="#a64c00"/>
      <polyline points="681.05,429.12 715,447.4 748.95,429.12" fill="none" stroke="#ffeade" stroke-width="0.8" stroke-linejoin="round" stroke-opacity="0.75"/>
    </g>
    <g data-cell="3,7" data-digit="3">
      <polygon points="996.05,418.15 1030,436.43 1030,496.05 996.05,477.77" fill="#823a00"/>
      <polygon points="1030,436.43 1063.95,418.15 1063.95,477.77 1030,496.05" fill="#662c00"/>
      <polygon points="1030,399.87 1063.95,418.15 1030,436.43 996.05,418.15" fill="#b95500"/>
      <polyline points="996.05,418.15 1030,436.43 1063.95,418.15" fill="none" stroke="#ffeade" stroke-width="0.8" stroke-linejoin="round" stroke-opacity="0.75"/>
    </g>
    <g data-cell="4,6" data-digit="4">
      <polygon points="926.05,403.25 960,421.53 960,496.05 926.05,477.77" fill="#8d3f00"/>
      <polygon points="960,421.53 993.95,403.25 993.95,477.77 960,496.05" fill="#713200"/>
      <polygon points="960,384.97 993.95,403.25 960,421.53 926.05,403.25" fill="#c35a00"/>
      <polyline points="926.05,403.25 960,421.53 993.95,403.25" fill="none" stroke="#ffeade" stroke-width="0.8" stroke-linejoin="round" stroke-opacity="0.75"/>
    </g>
    <g data-cell="5,5" data-digit="5">
      <polygon points="856.05,388.35 890,406.63 890,496.05 856.05,477.77" fill="#984500"/>
      <polygon points="890,406.63 923.95,388.35 923.95,477.77 890,496.05" fill="#7d3800"/>
      <polygon points="890,370.07 923.95,388.35 890,406.63 856.05,388.35" fill="#cd5f01"/>
      <polyline points="856.05,388.35 890,406.63 923.95,388.35" fill="none" stroke="#ffeade" stroke-width="0.8" stroke-linejoin="round" stroke-opacity="0.75"/>
    </g>
    <g data-cell="6,4" data-digit="5">
      <polygon points="786.05,388.35 820,406.63 820,496.05 786.05,477.77" fill="#984500"/>
      <polygon points="820,406.63 853.95,388.35 853.95,477.77 820,496.05" fill="#7d3800"/>
      <polygon points="820,370.07 853.95,388.35 820,406.63 786.05,388.35" fill="#cd5f01"/>
      <polyline points="786.05,388.35 820,406.63 853.95,388.35" fill="none" stroke="#ffeade" stroke-width="0.8" stroke-linejoin="round" stroke-opacity="0.75"/>
    </g>
    <g data-cell="7,3" data-digit="2">
      <polygon points="716.05,433.06 750,451.34 750,496.05 716.05,477.77" fill="#783400"/>
      <polygon points="750,451.34 783.95,433.06 783.95,477.77 750,496.05" fill="#5a2600"/>
      <polygon points="750,414.78 783.95,433.06 750,451.34 716.05,433.06" fill="#af5100"/>
      <polyline points="716.05,433.06 750,451.34 783.95,433.06" fill="none" stroke="#ffeade" stroke-width="0.8" stroke-linejoin="round" stroke-opacity="0.75"/>
    </g>
    <g data-cell="4,7" data-digit="1">
      <polygon points="961.05,466.81 995,485.09 995,514.9 961.05,496.62" fill="#6d2f00"/>
      <polygon points="995,485.09 1028.95,466.81 1028.95,496.62 995,514.9" fill="#4f2000"/>
      <polygon points="995,448.53 1028.95,466.81 995,485.09 961.05,466.81" fill="#a64c00"/>
      <polyline points="961.05,466.81 995,485.09 1028.95,466.81" fill="none" stroke="#ffeade" stroke-width="0.8" stroke-linejoin="round" stroke-opacity="0.75"/>
    </g>
    <g data-cell="5,6" data-digit="1">
      <polygon points="891.05,466.81 925,485.09 925,514.9 891.05,496.62" fill="#6d2f00"/>
      <polygon points="925,485.09 958.95,466.81 958.95,496.62 925,514.9" fill="#4f2000"/>
      <polygon points="925,448.53 958.95,466.81 925,485.09 891.05,466.81" fill="#a64c00"/>
      <polyline points="891.05,466.81 925,485.09 958.95,466.81" fill="none" stroke="#ffeade" stroke-width="0.8" stroke-linejoin="round" stroke-opacity="0.75"/>
    </g>
    <g data-cell="6,5" data-digit="3">
      <polygon points="821.05,437 855,455.28 855,514.9 821.05,496.62" fill="#823a00"/>
      <polygon points="855,455.28 888.95,437 888.95,496.62 855,514.9" fill="#662c00"/>
      <polygon points="855,418.72 888.95,437 855,455.28 821.05,437" fill="#b95500"/>
      <polyline points="821.05,437 855,455.28 888.95,437" fill="none" stroke="#ffeade" stroke-width="0.8" stroke-linejoin="round" stroke-opacity="0.75"/>
    </g>
    <g data-cell="7,4" data-digit="2">
      <polygon points="751.05,451.9 785,470.18 785,514.9 751.05,496.62" fill="#783400"/>
      <polygon points="785,470.18 818.95,451.9 818.95,496.62 785,514.9" fill="#5a2600"/>
      <polygon points="785,433.62 818.95,451.9 785,470.18 751.05,451.9" fill="#af5100"/>
      <polyline points="751.05,451.9 785,470.18 818.95,451.9" fill="none" stroke="#ffeade" stroke-width="0.8" stroke-linejoin="round" stroke-opacity="0.75"/>
    </g>
    <g data-cell="5,7" data-digit="0">
      <polygon points="926.05,500.56 960,518.84 960,533.74 926.05,515.46" fill="#632a00"/>
      <polygon points="960,518.84 993.95,500.56 993.95,515.46 960,533.74" fill="#441b00"/>
      <polygon points="960,482.28 993.95,500.56 960,518.84 926.05,500.56" fill="#9c4700"/>
      <polyline points="926.05,500.56 960,518.84 993.95,500.56" fill="none" stroke="#ffeade" stroke-width="0.8" stroke-linejoin="round" stroke-opacity="0.75"/>
    </g>
    <g data-cell="6,6" data-digit="0">
      <polygon points="856.05,500.56 890,518.84 890,533.74 856.05,515.46" fill="#632a00"/>
      <polygon points="890,518.84 923.95,500.56 923.95,515.46 890,533.74" fill="#441b00"/>
      <polygon points="890,482.28 923.95,500.56 890,518.84 856.05,500.56" fill="#9c4700"/>
      <polyline points="856.05,500.56 890,518.84 923.95,500.56" fill="none" stroke="#ffeade" stroke-width="0.8" stroke-linejoin="round" stroke-opacity="0.75"/>
    </g>
    <g data-cell="7,5" data-digit="0">
      <polygon points="786.05,500.56 820,518.84 820,533.74 786.05,515.46" fill="#632a00"/>
      <polygon points="820,518.84 853.95,500.56 853.95,515.46 820,533.74" fill="#441b00"/>
      <polygon points="820,482.28 853.95,500.56 820,518.84 786.05,500.56" fill="#9c4700"/>
      <polyline points="786.05,500.56 820,518.84 853.95,500.56" fill="none" stroke="#ffeade" stroke-width="0.8" stroke-linejoin="round" stroke-opacity="0.75"/>
    </g>
    <g data-cell="6,7" data-digit="0">
      <polygon points="891.05,519.4 925,537.68 925,552.59 891.05,534.31" fill="#632a00"/>
      <polygon points="925,537.68 958.95,519.4 958.95,534.31 925,552.59" fill="#441b00"/>
      <polygon points="925,501.12 958.95,519.4 925,537.68 891.05,519.4" fill="#9c4700"/>
      <polyline points="891.05,519.4 925,537.68 958.95,519.4" fill="none" stroke="#ffeade" stroke-width="0.8" stroke-linejoin="round" stroke-opacity="0.75"/>
    </g>
    <g data-cell="7,6" data-digit="0">
      <polygon points="821.05,519.4 855,537.68 855,552.59 821.05,534.31" fill="#632a00"/>
      <polygon points="855,537.68 888.95,519.4 888.95,534.31 855,552.59" fill="#441b00"/>
      <polygon points="855,501.12 888.95,519.4 855,537.68 821.05,519.4" fill="#9c4700"/>
      <polyline points="821.05,519.4 855,537.68 888.95,519.4" fill="none" stroke="#ffeade" stroke-width="0.8" stroke-linejoin="round" stroke-opacity="0.75"/>
    </g>
    <g data-cell="7,7" data-digit="0">
      <polygon points="856.05,538.25 890,556.53 890,571.43 856.05,553.15" fill="#632a00"/>
      <polygon points="890,556.53 923.95,538.25 923.95,553.15 890,571.43" fill="#441b00"/>
      <polygon points="890,519.97 923.95,538.25 890,556.53 856.05,538.25" fill="#9c4700"/>
      <polyline points="856.05,538.25 890,556.53 923.95,538.25" fill="none" stroke="#ffeade" stroke-width="0.8" stroke-linejoin="round" stroke-opacity="0.75"/>
    </g>
  </g>
  <!-- Brand: logo (layers partly lifted), wordmark, algorithm line, lead -->
  <g id="brand">
    <g transform="translate(76 120.13) scale(0.5908) translate(-18.75 -20.5)">
      <polygon points="18.75,126.25 100,170 181.25,126.25 100,82.5" fill="#e66c01" opacity="0.55"/>
      <polygon points="18.75,126.25 100,170 100,182.5 18.75,138.75" fill="#b45300" opacity="0.65"/>
      <polygon points="100,170 181.25,126.25 181.25,138.75 100,182.5" fill="#9c4700" opacity="0.6"/>
      <polygon points="18.75,95.25 100,139 181.25,95.25 100,51.5" fill="#e66c01" opacity="0.78"/>
      <polygon points="18.75,95.25 100,139 100,151.5 18.75,107.75" fill="#b45300" opacity="0.83"/>
      <polygon points="100,139 181.25,95.25 181.25,107.75 100,151.5" fill="#9c4700" opacity="0.8"/>
      <polygon points="18.75,64.25 100,108 181.25,64.25 100,20.5" fill="#e66c01" opacity="1"/>
      <polygon points="18.75,64.25 100,108 100,120.5 18.75,76.75" fill="#b45300" opacity="1"/>
      <polygon points="100,108 181.25,64.25 181.25,76.75 100,120.5" fill="#9c4700" opacity="1"/>
    </g>
    <text x="68.9" y="310.87" font-family="Geist" font-size="96" font-weight="700" letter-spacing="-4.22"><tspan fill="#e66c01">MD5</tspan><tspan fill="#ffffff">Kit</tspan></text>
    <text x="76" y="356.87" font-family="Geist Mono" font-size="26" font-weight="500" fill="#e66c01">MD2 · MD4 · MD5</text>
    <text x="76" y="402.87" font-family="Geist" font-size="26" font-weight="400" fill="#e2e6ef" opacity="0.88">Text and file hashes, in your browser.</text>
  </g>
  <!-- Divider: spans the badge row exactly -->
  <g id="divider">
    <rect x="76" y="432.87" width="496.99" height="1" fill="#7a85a0" opacity="0.35"/>
  </g>
  <!-- Badges: App Store first (Apple), equal heights (Google), clear space ≥ ¼ height -->
  <g id="badges">
    <!-- App Store badge: official artwork, verbatim -->
    <svg x="76" y="456.87" width="155.56" height="52" viewBox="0 0 119.66407 40">
      <title>Download_on_the_App_Store_Badge_US-UK_RGB_blk_4SVG_092917</title>
      <g>
        <g>
          <g>
            <path d="M110.13477,0H9.53468c-.3667,0-.729,0-1.09473.002-.30615.002-.60986.00781-.91895.0127A13.21476,13.21476,0,0,0,5.5171.19141a6.66509,6.66509,0,0,0-1.90088.627A6.43779,6.43779,0,0,0,1.99757,1.99707,6.25844,6.25844,0,0,0,.81935,3.61816a6.60119,6.60119,0,0,0-.625,1.90332,12.993,12.993,0,0,0-.1792,2.002C.00587,7.83008.00489,8.1377,0,8.44434V31.5586c.00489.3105.00587.6113.01515.9219a12.99232,12.99232,0,0,0,.1792,2.0019,6.58756,6.58756,0,0,0,.625,1.9043A6.20778,6.20778,0,0,0,1.99757,38.001a6.27445,6.27445,0,0,0,1.61865,1.1787,6.70082,6.70082,0,0,0,1.90088.6308,13.45514,13.45514,0,0,0,2.0039.1768c.30909.0068.6128.0107.91895.0107C8.80567,40,9.168,40,9.53468,40H110.13477c.3594,0,.7246,0,1.084-.002.3047,0,.6172-.0039.9219-.0107a13.279,13.279,0,0,0,2-.1768,6.80432,6.80432,0,0,0,1.9082-.6308,6.27742,6.27742,0,0,0,1.6172-1.1787,6.39482,6.39482,0,0,0,1.1816-1.6143,6.60413,6.60413,0,0,0,.6191-1.9043,13.50643,13.50643,0,0,0,.1856-2.0019c.0039-.3106.0039-.6114.0039-.9219.0078-.3633.0078-.7246.0078-1.0938V9.53613c0-.36621,0-.72949-.0078-1.09179,0-.30664,0-.61426-.0039-.9209a13.5071,13.5071,0,0,0-.1856-2.002,6.6177,6.6177,0,0,0-.6191-1.90332,6.46619,6.46619,0,0,0-2.7988-2.7998,6.76754,6.76754,0,0,0-1.9082-.627,13.04394,13.04394,0,0,0-2-.17676c-.3047-.00488-.6172-.01074-.9219-.01269-.3594-.002-.7246-.002-1.084-.002Z" style="fill: #a6a6a6"/>
            <path d="M8.44483,39.125c-.30468,0-.602-.0039-.90429-.0107a12.68714,12.68714,0,0,1-1.86914-.1631,5.88381,5.88381,0,0,1-1.65674-.5479,5.40573,5.40573,0,0,1-1.397-1.0166,5.32082,5.32082,0,0,1-1.02051-1.3965,5.72186,5.72186,0,0,1-.543-1.6572,12.41351,12.41351,0,0,1-.1665-1.875c-.00634-.2109-.01464-.9131-.01464-.9131V8.44434S.88185,7.75293.8877,7.5498a12.37039,12.37039,0,0,1,.16553-1.87207,5.7555,5.7555,0,0,1,.54346-1.6621A5.37349,5.37349,0,0,1,2.61183,2.61768,5.56543,5.56543,0,0,1,4.01417,1.59521a5.82309,5.82309,0,0,1,1.65332-.54394A12.58589,12.58589,0,0,1,7.543.88721L8.44532.875H111.21387l.9131.0127a12.38493,12.38493,0,0,1,1.8584.16259,5.93833,5.93833,0,0,1,1.6709.54785,5.59374,5.59374,0,0,1,2.415,2.41993,5.76267,5.76267,0,0,1,.5352,1.64892,12.995,12.995,0,0,1,.1738,1.88721c.0029.2832.0029.5874.0029.89014.0079.375.0079.73193.0079,1.09179V30.4648c0,.3633,0,.7178-.0079,1.0752,0,.3252,0,.6231-.0039.9297a12.73126,12.73126,0,0,1-.1709,1.8535,5.739,5.739,0,0,1-.54,1.67,5.48029,5.48029,0,0,1-1.0156,1.3857,5.4129,5.4129,0,0,1-1.3994,1.0225,5.86168,5.86168,0,0,1-1.668.5498,12.54218,12.54218,0,0,1-1.8692.1631c-.2929.0068-.5996.0107-.8974.0107l-1.084.002Z"/>
          </g>
          <g id="_Group_" data-name="&lt;Group&gt;">
            <g id="_Group_2" data-name="&lt;Group&gt;">
              <g id="_Group_3" data-name="&lt;Group&gt;">
                <path id="_Path_" data-name="&lt;Path&gt;" d="M24.76888,20.30068a4.94881,4.94881,0,0,1,2.35656-4.15206,5.06566,5.06566,0,0,0-3.99116-2.15768c-1.67924-.17626-3.30719,1.00483-4.1629,1.00483-.87227,0-2.18977-.98733-3.6085-.95814a5.31529,5.31529,0,0,0-4.47292,2.72787c-1.934,3.34842-.49141,8.26947,1.3612,10.97608.9269,1.32535,2.01018,2.8058,3.42763,2.7533,1.38706-.05753,1.9051-.88448,3.5794-.88448,1.65876,0,2.14479.88448,3.591.8511,1.48838-.02416,2.42613-1.33124,3.32051-2.66914a10.962,10.962,0,0,0,1.51842-3.09251A4.78205,4.78205,0,0,1,24.76888,20.30068Z" style="fill: #fff"/>
                <path id="_Path_2" data-name="&lt;Path&gt;" d="M22.03725,12.21089a4.87248,4.87248,0,0,0,1.11452-3.49062,4.95746,4.95746,0,0,0-3.20758,1.65961,4.63634,4.63634,0,0,0-1.14371,3.36139A4.09905,4.09905,0,0,0,22.03725,12.21089Z" style="fill: #fff"/>
              </g>
            </g>
            <g>
              <path d="M42.30227,27.13965h-4.7334l-1.13672,3.35645H34.42727l4.4834-12.418h2.083l4.4834,12.418H43.438ZM38.0591,25.59082h3.752l-1.84961-5.44727h-.05176Z" style="fill: #fff"/>
              <path d="M55.15969,25.96973c0,2.81348-1.50586,4.62109-3.77832,4.62109a3.0693,3.0693,0,0,1-2.84863-1.584h-.043v4.48438h-1.8584V21.44238H48.4302v1.50586h.03418a3.21162,3.21162,0,0,1,2.88281-1.60059C53.645,21.34766,55.15969,23.16406,55.15969,25.96973Zm-1.91016,0c0-1.833-.94727-3.03809-2.39258-3.03809-1.41992,0-2.375,1.23047-2.375,3.03809,0,1.82422.95508,3.0459,2.375,3.0459C52.30227,29.01563,53.24953,27.81934,53.24953,25.96973Z" style="fill: #fff"/>
              <path d="M65.12453,25.96973c0,2.81348-1.50586,4.62109-3.77832,4.62109a3.0693,3.0693,0,0,1-2.84863-1.584h-.043v4.48438h-1.8584V21.44238H58.395v1.50586h.03418A3.21162,3.21162,0,0,1,61.312,21.34766C63.60988,21.34766,65.12453,23.16406,65.12453,25.96973Zm-1.91016,0c0-1.833-.94727-3.03809-2.39258-3.03809-1.41992,0-2.375,1.23047-2.375,3.03809,0,1.82422.95508,3.0459,2.375,3.0459C62.26711,29.01563,63.21438,27.81934,63.21438,25.96973Z" style="fill: #fff"/>
              <path d="M71.71047,27.03613c.1377,1.23145,1.334,2.04,2.96875,2.04,1.56641,0,2.69336-.80859,2.69336-1.91895,0-.96387-.67969-1.541-2.28906-1.93652l-1.60937-.3877c-2.28027-.55078-3.33887-1.61719-3.33887-3.34766,0-2.14258,1.86719-3.61426,4.51855-3.61426,2.624,0,4.42285,1.47168,4.4834,3.61426h-1.876c-.1123-1.23926-1.13672-1.9873-2.63379-1.9873s-2.52148.75684-2.52148,1.8584c0,.87793.6543,1.39453,2.25488,1.79l1.36816.33594c2.54785.60254,3.60645,1.626,3.60645,3.44238,0,2.32324-1.85059,3.77832-4.79395,3.77832-2.75391,0-4.61328-1.4209-4.7334-3.667Z" style="fill: #fff"/>
              <path d="M83.34621,19.2998v2.14258h1.72168v1.47168H83.34621v4.99121c0,.77539.34473,1.13672,1.10156,1.13672a5.80752,5.80752,0,0,0,.61133-.043v1.46289a5.10351,5.10351,0,0,1-1.03223.08594c-1.833,0-2.54785-.68848-2.54785-2.44434V22.91406H80.16262V21.44238H81.479V19.2998Z" style="fill: #fff"/>
              <path d="M86.065,25.96973c0-2.84863,1.67773-4.63867,4.29395-4.63867,2.625,0,4.29492,1.79,4.29492,4.63867,0,2.85645-1.66113,4.63867-4.29492,4.63867C87.72609,30.6084,86.065,28.82617,86.065,25.96973Zm6.69531,0c0-1.9541-.89551-3.10742-2.40137-3.10742s-2.40039,1.16211-2.40039,3.10742c0,1.96191.89453,3.10645,2.40039,3.10645S92.76027,27.93164,92.76027,25.96973Z" style="fill: #fff"/>
              <path d="M96.18606,21.44238h1.77246v1.541h.043a2.1594,2.1594,0,0,1,2.17773-1.63574,2.86616,2.86616,0,0,1,.63672.06934v1.73828a2.59794,2.59794,0,0,0-.835-.1123,1.87264,1.87264,0,0,0-1.93652,2.083v5.37012h-1.8584Z" style="fill: #fff"/>
              <path d="M109.3843,27.83691c-.25,1.64355-1.85059,2.77148-3.89844,2.77148-2.63379,0-4.26855-1.76465-4.26855-4.5957,0-2.83984,1.64355-4.68164,4.19043-4.68164,2.50488,0,4.08008,1.7207,4.08008,4.46582v.63672h-6.39453v.1123a2.358,2.358,0,0,0,2.43555,2.56445,2.04834,2.04834,0,0,0,2.09082-1.27344Zm-6.28223-2.70215h4.52637a2.1773,2.1773,0,0,0-2.2207-2.29785A2.292,2.292,0,0,0,103.10207,25.13477Z" style="fill: #fff"/>
            </g>
          </g>
        </g>
        <g id="_Group_4" data-name="&lt;Group&gt;">
          <g>
            <path d="M37.82619,8.731a2.63964,2.63964,0,0,1,2.80762,2.96484c0,1.90625-1.03027,3.002-2.80762,3.002H35.67092V8.731Zm-1.22852,5.123h1.125a1.87588,1.87588,0,0,0,1.96777-2.146,1.881,1.881,0,0,0-1.96777-2.13379h-1.125Z" style="fill: #fff"/>
            <path d="M41.68068,12.44434a2.13323,2.13323,0,1,1,4.24707,0,2.13358,2.13358,0,1,1-4.24707,0Zm3.333,0c0-.97607-.43848-1.54687-1.208-1.54687-.77246,0-1.207.5708-1.207,1.54688,0,.98389.43457,1.55029,1.207,1.55029C44.57522,13.99463,45.01369,13.42432,45.01369,12.44434Z" style="fill: #fff"/>
            <path d="M51.57326,14.69775h-.92187l-.93066-3.31641h-.07031l-.92676,3.31641h-.91309l-1.24121-4.50293h.90137l.80664,3.436h.06641l.92578-3.436h.85254l.92578,3.436h.07031l.80273-3.436h.88867Z" style="fill: #fff"/>
            <path d="M53.85354,10.19482H54.709v.71533h.06641a1.348,1.348,0,0,1,1.34375-.80225,1.46456,1.46456,0,0,1,1.55859,1.6748v2.915h-.88867V12.00586c0-.72363-.31445-1.0835-.97168-1.0835a1.03294,1.03294,0,0,0-1.0752,1.14111v2.63428h-.88867Z" style="fill: #fff"/>
            <path d="M59.09377,8.437h.88867v6.26074h-.88867Z" style="fill: #fff"/>
            <path d="M61.21779,12.44434a2.13346,2.13346,0,1,1,4.24756,0,2.1338,2.1338,0,1,1-4.24756,0Zm3.333,0c0-.97607-.43848-1.54687-1.208-1.54687-.77246,0-1.207.5708-1.207,1.54688,0,.98389.43457,1.55029,1.207,1.55029C64.11232,13.99463,64.5508,13.42432,64.5508,12.44434Z" style="fill: #fff"/>
            <path d="M66.4009,13.42432c0-.81055.60352-1.27783,1.6748-1.34424l1.21973-.07031v-.38867c0-.47559-.31445-.74414-.92187-.74414-.49609,0-.83984.18213-.93848.50049h-.86035c.09082-.77344.81836-1.26953,1.83984-1.26953,1.12891,0,1.76563.562,1.76563,1.51318v3.07666h-.85547v-.63281h-.07031a1.515,1.515,0,0,1-1.35254.707A1.36026,1.36026,0,0,1,66.4009,13.42432Zm2.89453-.38477v-.37646l-1.09961.07031c-.62012.0415-.90137.25244-.90137.64941,0,.40527.35156.64111.835.64111A1.0615,1.0615,0,0,0,69.29543,13.03955Z" style="fill: #fff"/>
            <path d="M71.34816,12.44434c0-1.42285.73145-2.32422,1.86914-2.32422a1.484,1.484,0,0,1,1.38086.79h.06641V8.437h.88867v6.26074h-.85156v-.71143h-.07031a1.56284,1.56284,0,0,1-1.41406.78564C72.0718,14.772,71.34816,13.87061,71.34816,12.44434Zm.918,0c0,.95508.4502,1.52979,1.20313,1.52979.749,0,1.21191-.583,1.21191-1.52588,0-.93848-.46777-1.52979-1.21191-1.52979C72.72121,10.91846,72.26613,11.49707,72.26613,12.44434Z" style="fill: #fff"/>
            <path d="M79.23,12.44434a2.13323,2.13323,0,1,1,4.24707,0,2.13358,2.13358,0,1,1-4.24707,0Zm3.333,0c0-.97607-.43848-1.54687-1.208-1.54687-.77246,0-1.207.5708-1.207,1.54688,0,.98389.43457,1.55029,1.207,1.55029C82.12453,13.99463,82.563,13.42432,82.563,12.44434Z" style="fill: #fff"/>
            <path d="M84.66945,10.19482h.85547v.71533h.06641a1.348,1.348,0,0,1,1.34375-.80225,1.46456,1.46456,0,0,1,1.55859,1.6748v2.915H87.605V12.00586c0-.72363-.31445-1.0835-.97168-1.0835a1.03294,1.03294,0,0,0-1.0752,1.14111v2.63428h-.88867Z" style="fill: #fff"/>
            <path d="M93.51516,9.07373v1.1416h.97559v.74854h-.97559V13.2793c0,.47168.19434.67822.63672.67822a2.96657,2.96657,0,0,0,.33887-.02051v.74023a2.9155,2.9155,0,0,1-.4834.04541c-.98828,0-1.38184-.34766-1.38184-1.21582v-2.543h-.71484v-.74854h.71484V9.07373Z" style="fill: #fff"/>
            <path d="M95.70461,8.437h.88086v2.48145h.07031a1.3856,1.3856,0,0,1,1.373-.80664,1.48339,1.48339,0,0,1,1.55078,1.67871v2.90723H98.69v-2.688c0-.71924-.335-1.0835-.96289-1.0835a1.05194,1.05194,0,0,0-1.13379,1.1416v2.62988h-.88867Z" style="fill: #fff"/>
            <path d="M104.76125,13.48193a1.828,1.828,0,0,1-1.95117,1.30273A2.04531,2.04531,0,0,1,100.73,12.46045a2.07685,2.07685,0,0,1,2.07617-2.35254c1.25293,0,2.00879.856,2.00879,2.27V12.688h-3.17969v.0498a1.1902,1.1902,0,0,0,1.19922,1.29,1.07934,1.07934,0,0,0,1.07129-.5459Zm-3.126-1.45117h2.27441a1.08647,1.08647,0,0,0-1.1084-1.1665A1.15162,1.15162,0,0,0,101.63527,12.03076Z" style="fill: #fff"/>
          </g>
        </g>
      </g>
    </svg>
    <!-- Google Play badge: official artwork, verbatim -->
    <svg x="247.16" y="456.87" width="175.33" height="52" viewBox="0 0 238.96 70.87">
      <!-- Generator: Adobe Illustrator 29.8.3, SVG Export Plug-In . SVG Version: 2.1.1 Build 3)  -->
      <defs>
        <style>
        .st0 {
        fill: #4285f4;
        }
        .st1 {
        fill: #a6a6a6;
        }
        .st2 {
        stroke: #fff;
        stroke-miterlimit: 10;
        stroke-width: .2px;
        }
        .st2, .st3 {
        fill: #fff;
        }
        .st4 {
        fill: #34a853;
        }
        .st5 {
        fill: #fbbc04;
        }
        .st6 {
        fill: #ea4335;
        }
        </style>
      </defs>
      <rect x="-.11" width="239.17" height="70.87" rx="8.86" ry="8.86"/>
      <path class="st1" d="M230.21,1.42c4.1,0,7.44,3.34,7.44,7.44v53.15c0,4.1-3.34,7.44-7.44,7.44H8.75c-4.1,0-7.44-3.34-7.44-7.44V8.86C1.31,4.76,4.65,1.42,8.75,1.42h221.46M230.21,0H8.75C3.88,0-.11,3.99-.11,8.86v53.15c0,4.87,3.99,8.86,8.86,8.86h221.46c4.87,0,8.86-3.99,8.86-8.86V8.86c0-4.87-3.99-8.86-8.86-8.86h0Z"/>
      <g>
        <path class="st2" d="M83.9,18.15c0,1.48-.44,2.67-1.32,3.55-1,1.05-2.3,1.57-3.9,1.57s-2.84-.53-3.91-1.59c-1.07-1.06-1.61-2.38-1.61-3.96s.54-2.89,1.61-3.96c1.07-1.06,2.38-1.6,3.91-1.6.76,0,1.49.15,2.18.44.69.3,1.25.69,1.66,1.19l-.93.94c-.7-.84-1.67-1.26-2.91-1.26-1.12,0-2.09.39-2.9,1.18s-1.22,1.81-1.22,3.06.41,2.28,1.22,3.06c.82.79,1.78,1.18,2.9,1.18,1.19,0,2.18-.4,2.97-1.19.51-.52.81-1.23.89-2.15h-3.86v-1.28h5.15c.05.28.07.54.07.8Z"/>
        <path class="st2" d="M92.07,13.71h-4.84v3.37h4.37v1.28h-4.37v3.37h4.84v1.31h-6.21v-10.63h6.21v1.31h0Z"/>
        <path class="st2" d="M97.83,23.03h-1.37v-9.32h-2.97v-1.31h7.3v1.31h-2.97s0,9.32,0,9.32Z"/>
        <path class="st2" d="M106.08,23.03v-10.63h1.36v10.63h-1.36Z"/>
        <path class="st2" d="M113.51,23.03h-1.37v-9.32h-2.97v-1.31h7.3v1.31h-2.97s0,9.32,0,9.32Z"/>
        <path class="st2" d="M130.3,21.66c-1.05,1.08-2.34,1.61-3.9,1.61s-2.85-.54-3.9-1.61c-1.05-1.07-1.57-2.39-1.57-3.94s.52-2.87,1.57-3.94c1.04-1.08,2.34-1.61,3.9-1.61s2.84.54,3.89,1.62c1.05,1.08,1.57,2.39,1.57,3.93s-.52,2.87-1.57,3.94ZM123.52,20.77c.79.8,1.75,1.19,2.89,1.19s2.1-.4,2.89-1.19c.79-.8,1.18-1.81,1.18-3.05s-.4-2.26-1.18-3.05c-.78-.8-1.75-1.19-2.89-1.19s-2.1.4-2.89,1.19c-.78.8-1.18,1.81-1.18,3.05s.4,2.26,1.18,3.05Z"/>
        <path class="st2" d="M133.79,23.03v-10.63h1.66l5.17,8.27h.06l-.06-2.05v-6.22h1.37v10.63h-1.43l-5.41-8.67h-.06l.06,2.05v6.62h-1.37,0Z"/>
      </g>
      <path class="st3" d="M120.61,38.54c-4.17,0-7.56,3.17-7.56,7.53s3.4,7.53,7.56,7.53,7.56-3.2,7.56-7.53-3.4-7.53-7.56-7.53ZM120.61,50.64c-2.28,0-4.25-1.88-4.25-4.57s1.97-4.57,4.25-4.57,4.25,1.85,4.25,4.57-1.97,4.57-4.25,4.57ZM104.11,38.54c-4.17,0-7.56,3.17-7.56,7.53s3.4,7.53,7.56,7.53,7.56-3.2,7.56-7.53-3.4-7.53-7.56-7.53ZM104.11,50.64c-2.28,0-4.25-1.88-4.25-4.57s1.97-4.57,4.25-4.57,4.25,1.85,4.25,4.57-1.97,4.57-4.25,4.57ZM84.48,40.85v3.2h7.65c-.23,1.8-.83,3.11-1.74,4.03-1.11,1.11-2.85,2.34-5.91,2.34-4.71,0-8.39-3.8-8.39-8.51s3.68-8.51,8.39-8.51c2.54,0,4.4,1,5.76,2.28l2.26-2.26c-1.91-1.83-4.45-3.22-8.02-3.22-6.45,0-11.87,5.25-11.87,11.7s5.42,11.7,11.87,11.7c3.48,0,6.11-1.14,8.16-3.28,2.11-2.11,2.77-5.08,2.77-7.48,0-.74-.06-1.43-.17-2h-10.76,0ZM164.75,43.33c-.63-1.68-2.54-4.8-6.45-4.8s-7.11,3.05-7.11,7.53c0,4.22,3.2,7.53,7.48,7.53,3.45,0,5.45-2.11,6.28-3.34l-2.57-1.71c-.86,1.26-2.03,2.08-3.71,2.08s-2.88-.77-3.65-2.28l10.08-4.17-.34-.86h0ZM154.47,45.84c-.09-2.91,2.26-4.4,3.94-4.4,1.31,0,2.43.66,2.8,1.6l-6.74,2.8ZM146.28,53.15h3.31v-22.15h-3.31v22.15ZM140.86,40.22h-.11c-.74-.88-2.17-1.68-3.97-1.68-3.77,0-7.22,3.31-7.22,7.56s3.45,7.51,7.22,7.51c1.8,0,3.22-.8,3.97-1.71h.11v1.08c0,2.88-1.54,4.42-4.03,4.42-2.03,0-3.28-1.46-3.8-2.68l-2.88,1.2c.83,2,3.03,4.45,6.68,4.45,3.88,0,7.16-2.28,7.16-7.85v-13.53h-3.14v1.23ZM137.06,50.64c-2.28,0-4.2-1.91-4.2-4.54s1.91-4.6,4.2-4.6,4.03,1.94,4.03,4.6-1.77,4.54-4.03,4.54ZM180.26,31h-7.92v22.15h3.31v-8.39h4.62c3.66,0,7.27-2.65,7.27-6.88s-3.6-6.88-7.27-6.88ZM180.34,41.68h-4.7v-7.59h4.7c2.47,0,3.87,2.05,3.87,3.8s-1.4,3.8-3.87,3.8h0ZM200.77,38.5c-2.39,0-4.87,1.05-5.9,3.39l2.94,1.23c.63-1.23,1.79-1.62,3.02-1.62,1.71,0,3.45,1.03,3.48,2.85v.23c-.6-.34-1.88-.86-3.45-.86-3.16,0-6.38,1.74-6.38,4.99,0,2.96,2.59,4.87,5.5,4.87,2.22,0,3.45-1,4.22-2.16h.11v1.71h3.19v-8.49c0-3.93-2.94-6.13-6.73-6.13h0ZM200.38,50.63c-1.08,0-2.59-.54-2.59-1.88,0-1.71,1.88-2.37,3.5-2.37,1.45,0,2.14.31,3.02.74-.26,2.05-2.02,3.5-3.93,3.5ZM219.12,38.98l-3.79,9.6h-.11l-3.93-9.6h-3.56l5.9,13.42-3.36,7.47h3.45l9.09-20.89h-3.68ZM189.35,53.15h3.31v-22.15h-3.31v22.15Z"/>
      <g>
        <path class="st6" d="M36.6,34.41l-18.86,20.02s0,0,0,.01c.58,2.17,2.56,3.77,4.92,3.77.94,0,1.83-.26,2.58-.7l.06-.04,21.23-12.25-9.94-10.82Z"/>
        <path class="st5" d="M55.68,31h-.02s-9.17-5.33-9.17-5.33l-10.33,9.19,10.36,10.36,9.12-5.26c1.6-.86,2.68-2.55,2.68-4.49s-1.07-3.61-2.65-4.47h0Z"/>
        <path class="st0" d="M17.73,16.44c-.11.42-.17.86-.17,1.31v35.38c0,.45.06.89.17,1.31l19.51-19.51-19.51-18.49Z"/>
        <path class="st4" d="M36.74,35.43l9.76-9.76-21.21-12.3c-.77-.46-1.67-.73-2.63-.73-2.36,0-4.34,1.6-4.92,3.78h0s19,19,19,19h0Z"/>
      </g>
    </svg>
    <g>
      <rect x="438.6" y="457.37" width="133.89" height="51" rx="9.36" fill="#000" stroke="#a6a6a6"/>
      <path d="M10.226 17.284c-2.965-.36-5.054-2.493-5.054-5.256 0-1.123.404-2.336 1.078-3.144-.292-.741-.247-2.314.09-2.965.898-.112 2.111.36 2.83 1.01.853-.269 1.752-.404 2.853-.404 1.1 0 1.999.135 2.807.382.696-.629 1.932-1.1 2.83-.988.315.606.36 2.179.067 2.942.72.854 1.101 2 1.101 3.167 0 2.763-2.089 4.852-5.098 5.234.763.494 1.28 1.572 1.28 2.807v2.336c0 .674.561 1.056 1.235.786 4.066-1.55 7.255-5.615 7.255-10.646C23.5 6.188 18.334 1 11.978 1 5.62 1 .5 6.188.5 12.545c0 4.986 3.167 9.12 7.435 10.669.606.225 1.19-.18 1.19-.786V20.63a2.9 2.9 0 0 1-1.078.224c-1.483 0-2.359-.808-2.987-2.313-.247-.607-.517-.966-1.034-1.033-.27-.023-.359-.135-.359-.27 0-.27.45-.471.898-.471.652 0 1.213.404 1.797 1.235.45.651.921.943 1.483.943.561 0 .92-.202 1.437-.719.382-.381.674-.718.944-.943" fill="#fff" transform="translate(450.5772828160011 468.3123076923077) scale(1.2133333333333336)"/>
      <text x="490.1" y="477.67" font-family="Geist" font-size="12.48" font-weight="400" fill="#fff">Source on</text>
      <text x="490.1" y="497.95" font-family="Geist" font-size="21.84" font-weight="600" fill="#fff" letter-spacing="-0.22">GitHub</text>
    </g>
  </g>
  <!-- Domain -->
  <g id="url">
    <text x="1156" y="596" font-family="Geist Mono" font-size="18" font-weight="400" fill="#8f99b2" text-anchor="end">md5kit.com</text>
  </g>
</svg>
